# xmcd
#
# Track frame offsets: 
#        182
#        17187
#        27157
#        41097
#        54397
#        66437
#        80502
#        97447
#        113992
#        126872
#        144137
#        160327
#        173125
#        185050
#        196767
#        210837
#        223552
#        245017
#        257365
#        270162
#
# Disc length: 3813 seconds
#
# Revision: 2
# Processed by: cddbd v1.5.2PL0 Copyright (c) Steve Scherf et al.
# Submitted via: ExactAudioCopyFreeDBPlugin 1.0
#
DISCID=1c0ee314
DTITLE=Various Artist - Blues and Soul - essential
DYEAR=1997
DGENRE=Blues
TTITLE0=Curtis Mayfield - Move On Up
TTITLE1=John Lee Hooker - Dimples
TTITLE2=Etta James - I Just Wanna Make Love To You
TTITLE3=Jackie Wilson - (Your Love Keeps Lifting Me) Higher And Higher
TTITLE4=judy clay and william bell - Private Number
TTITLE5=Howlin' Wolf - Smokestack Lightning
TTITLE6=Millie Jackson - If Loving You Is Wrong
TTITLE7=Al Green - Take Me To The River
TTITLE8=Fontella Bass - Rescue Me
TTITLE9=Ramsey Lewis - Wade In The Water
TTITLE10=Nina Simone - My Baby Just Cares For Me
TTITLE11=Bob and Earl - Harlem Shuffle
TTITLE12=Little Walter - My Babe
TTITLE13=Maxine Brown - Oh No Not My Baby
TTITLE14=Aaron Neville - Tell It Like It Is
TTITLE15=Impressions - It's All Right
TTITLE16=The Staple Singers - I'll Take You There
TTITLE17=Ann Peebles - I'm Gonna Tear Your Playhouse Down
TTITLE18=Tommy Tucker - Hi-Heel Sneakers
TTITLE19=Dorothy Moore - Misty Blue
EXTD=
EXTT0=
EXTT1=
EXTT2=
EXTT3=
EXTT4=
EXTT5=
EXTT6=
EXTT7=
EXTT8=
EXTT9=
EXTT10=
EXTT11=
EXTT12=
EXTT13=
EXTT14=
EXTT15=
EXTT16=
EXTT17=
EXTT18=
EXTT19=
PLAYORDER=
